<?xml version="1.0" standalone="no"?>
<!DOCTYPE svg PUBLIC "-//W3C//DTD SVG 20010904//EN"
 "http://www.w3.org/TR/2001/REC-SVG-20010904/DTD/svg10.dtd">
<svg version="1.0" xmlns="http://www.w3.org/2000/svg"
 width="512.000000pt" height="512.000000pt" viewBox="0 0 512.000000 512.000000"
 preserveAspectRatio="xMidYMid meet">

<g transform="translate(0.000000,512.000000) scale(0.100000,-0.100000)"
fill="#000000" stroke="none">
<path d="M0 4914 l0 -207 21 27 c61 77 529 251 852 317 196 40 247 42 281 10
34 -32 41 -72 21 -115 -20 -42 -38 -49 -185 -76 -237 -43 -451 -108 -672 -202
l-118 -50 0 -684 c0 -737 4 -812 54 -1005 103 -393 353 -745 690 -971 185
-123 471 -240 591 -241 91 -1 357 93 473 166 l42 27 0 296 0 295 -92 44 c-144
68 -221 86 -383 92 -212 8 -366 -30 -535 -132 -83 -50 -110 -54 -157 -25 -40
24 -47 52 -40 144 19 223 161 432 367 540 112 59 200 80 325 80 177 -1 316
-51 449 -160 l66 -54 0 88 c0 63 4 94 16 110 40 57 449 221 707 283 l97 23 0
541 0 542 -67 31 c-230 105 -528 194 -778 233 -64 10 -85 18 -107 40 -54 53
-28 146 45 164 51 13 393 -61 603 -131 221 -73 474 -188 494 -223 6 -13 10
-213 10 -587 l0 -567 68 7 c37 3 108 11 157 16 133 14 471 12 625 -5 379 -40
730 -138 1074 -299 69 -32 98 -52 110 -72 14 -26 15 58 16 934 l0 962 -1775 0
-1775 0 31 -28 c26 -24 32 -36 32 -72 0 -37 -5 -48 -33 -73 -28 -25 -38 -28
-74 -24 -27 4 -49 15 -63 32 -41 47 -24 133 31 155 12 5 -300 9 -736 9 l-758
1 0 -206z m623 -836 c12 -6 40 -26 61 -44 59 -51 137 -77 226 -77 89 0 167 26
226 77 56 48 82 59 118 52 59 -11 97 -75 77 -128 -22 -58 -142 -143 -253 -179
-128 -41 -301 -29 -418 31 -64 33 -157 109 -170 139 -34 83 56 170 133 129z
m1339 -23 c161 -129 347 -135 492 -15 27 22 59 43 72 46 57 14 118 -38 118
-101 0 -64 -110 -154 -246 -203 -59 -20 -92 -25 -173 -26 -147 0 -232 28 -351
118 -86 64 -105 117 -63 170 43 55 92 59 151 11z"/>
<path d="M3285 3399 c-297 -29 -646 -118 -920 -236 l-110 -48 0 -735 c0 -674
2 -743 19 -835 118 -640 592 -1152 1218 -1320 l93 -25 94 26 c604 164 1080
668 1205 1276 33 159 37 269 34 943 l-3 669 -115 49 c-406 171 -791 248 -1230
246 -107 -1 -235 -6 -285 -10z m-196 -834 c83 -20 187 -75 245 -130 40 -39 46
-50 46 -86 0 -32 -6 -47 -29 -70 -43 -42 -94 -40 -148 6 -23 19 -65 47 -94 62
-48 25 -65 28 -149 28 -81 0 -103 -4 -150 -26 -30 -14 -75 -42 -98 -62 -35
-29 -52 -37 -84 -37 -55 0 -98 43 -98 96 0 33 7 45 53 89 58 57 158 111 240
131 72 17 189 17 266 -1z m1293 4 c29 -6 89 -28 133 -50 161 -78 216 -169 146
-240 -44 -44 -90 -40 -157 12 -155 119 -323 119 -478 0 -67 -52 -113 -56 -157
-12 -35 36 -40 95 -10 128 128 137 334 201 523 162z m-1323 -908 c145 -93 297
-140 479 -148 202 -9 360 29 533 128 96 54 119 58 166 29 40 -24 48 -52 39
-142 -26 -281 -244 -532 -526 -605 -87 -22 -254 -22 -340 1 -298 80 -514 345
-523 643 -2 61 0 66 31 94 42 38 82 38 141 0z"/>
<path d="M3130 1392 c0 -18 71 -110 120 -156 109 -100 257 -148 398 -127 91
13 197 61 264 120 47 42 125 147 116 156 -3 3 -39 -6 -80 -19 -228 -77 -529
-74 -750 7 -38 13 -68 22 -68 19z"/>
<path d="M1 1613 l-1 -1613 1778 0 1777 1 -90 24 c-393 103 -722 309 -979 616
-220 261 -376 606 -417 924 -6 50 -13 95 -15 102 -2 8 -31 -1 -87 -27 -95 -45
-224 -89 -340 -116 -68 -16 -87 -16 -150 -6 -103 18 -293 84 -422 146 -575
280 -977 851 -1044 1486 -5 41 -9 -651 -10 -1537z"/>
<path d="M1434 3036 c-127 -29 -247 -112 -315 -217 -17 -28 -29 -52 -27 -54 3
-3 31 4 64 15 227 78 523 80 743 5 41 -14 76 -23 78 -21 19 18 -100 157 -176
206 -103 66 -251 92 -367 66z"/>
<path d="M5107 1635 c-21 -239 -122 -536 -261 -765 -255 -418 -663 -721 -1138
-844 l-93 -24 753 -1 752 -1 0 855 c0 470 -2 855 -4 855 -1 0 -6 -34 -9 -75z"/>
</g>
</svg>
