<?xml version="1.0" ?><svg viewBox="0 0 512 512" xmlns="http://www.w3.org/2000/svg"><g id="Ticket"><path d="M438.9658,223.616a8,8,0,0,0,8-8V161.1287a8,8,0,0,0-8-8H73.0342a8,8,0,0,0-8,8V215.616a8,8,0,0,0,8,8,32.3843,32.3843,0,0,1,0,64.7685,8,8,0,0,0-8,8v54.4868a8,8,0,0,0,8,8H438.9658a8,8,0,0,0,8-8V296.3845a8,8,0,0,0-8-8,32.3843,32.3843,0,0,1,0-64.7685Zm-8,80.1074v39.1479H361.3447V323.1287a8,8,0,0,0-16,0v19.7426H81.0342V303.7234a48.39,48.39,0,0,0,0-95.4463V169.1287H345.3447v19a8,8,0,0,0,16,0v-19h69.6211v39.1484a48.39,48.39,0,0,0,0,95.4463Z"/><path d="M353.3447,261.1287a8,8,0,0,0-8,8v27a8,8,0,0,0,16,0v-27A8,8,0,0,0,353.3447,261.1287Z"/><path d="M353.3447,207.1287a8,8,0,0,0-8,8v27a8,8,0,0,0,16,0v-27A8,8,0,0,0,353.3447,207.1287Z"/><rect height="64.486" rx="9.6846" width="138.351" x="160.226" y="225.9169"/><path d="M164.16,192.63H294.6427a3.9342,3.9342,0,0,1,3.9342,3.9342v12.6688a3.9342,3.9342,0,0,1-3.9342,3.9342H164.16a3.9342,3.9342,0,0,1-3.9342-3.9342V196.5645A3.9343,3.9343,0,0,1,164.16,192.63Z"/><rect height="16" width="20" x="199.2256" y="304.4426"/><rect height="16" width="20" x="160.2256" y="304.4426"/><rect height="16" width="19.0332" x="277.2256" y="304.4426"/><rect height="16" width="20" x="238.2256" y="304.4426"/></g></svg>